<svg width="20" height="22" viewBox="0 0 20 22" fill="none" xmlns="http://www.w3.org/2000/svg">
<path d="M19 17L10.8123 20.639C10.2951 20.8688 9.70485 20.8688 9.18772 20.639L1 17M19 12L10.8123 15.639C10.2951 15.8688 9.70485 15.8688 9.18772 15.639L1 12M1.78885 6.89444L9.10557 10.5528C9.66863 10.8343 10.3314 10.8343 10.8944 10.5528L18.2111 6.89444C18.9482 6.52592 18.9482 5.47411 18.2111 5.10559L10.8944 1.44723C10.3314 1.1657 9.66863 1.1657 9.10557 1.44723L1.78886 5.10559C1.05181 5.47411 1.05181 6.52592 1.78885 6.89444Z" stroke="#28303F" stroke-width="1.5" stroke-linecap="round" stroke-linejoin="round"/>
</svg>
