<svg width="18" height="18" viewBox="0 0 18 18" fill="none" xmlns="http://www.w3.org/2000/svg">
<path fill-rule="evenodd" clip-rule="evenodd" d="M5.66699 0.666626C6.12723 0.666626 6.50033 1.03972 6.50033 1.49996V2.33329H11.5003V1.49996C11.5003 1.03972 11.8734 0.666626 12.3337 0.666626C12.7939 0.666626 13.167 1.03972 13.167 1.49996V2.33329H14.8337C16.2144 2.33329 17.3337 3.45258 17.3337 4.83329V14.8333C17.3337 16.214 16.2144 17.3333 14.8337 17.3333H3.16699C1.78628 17.3333 0.666992 16.214 0.666992 14.8333V4.83329C0.666992 3.45258 1.78628 2.33329 3.16699 2.33329H4.83366V1.49996C4.83366 1.03972 5.20676 0.666626 5.66699 0.666626ZM4.83366 3.99996H3.16699C2.70675 3.99996 2.33366 4.37306 2.33366 4.83329V14.8333C2.33366 15.2935 2.70676 15.6666 3.16699 15.6666H14.8337C15.2939 15.6666 15.667 15.2935 15.667 14.8333V4.83329C15.667 4.37306 15.2939 3.99996 14.8337 3.99996H13.167V4.83329C13.167 5.29353 12.7939 5.66663 12.3337 5.66663C11.8734 5.66663 11.5003 5.29353 11.5003 4.83329V3.99996H6.50033V4.83329C6.50033 5.29353 6.12723 5.66663 5.66699 5.66663C5.20676 5.66663 4.83366 5.29353 4.83366 4.83329V3.99996ZM4.00033 8.16663C4.00033 7.70639 4.37342 7.33329 4.83366 7.33329H13.167C13.6272 7.33329 14.0003 7.70639 14.0003 8.16663C14.0003 8.62686 13.6272 8.99996 13.167 8.99996H4.83366C4.37342 8.99996 4.00033 8.62686 4.00033 8.16663Z" fill="#BA1C1C"/>
</svg>
