<svg width="98" height="86" viewBox="0 0 98 86" fill="none" xmlns="http://www.w3.org/2000/svg">
<path d="M0.333008 12.5834C0.333008 5.86395 5.78021 0.416748 12.4997 0.416748H24.6663C31.3858 0.416748 36.833 5.86395 36.833 12.5834V73.4167C36.833 80.1362 31.3858 85.5834 24.6663 85.5834H12.4997C5.78021 85.5834 0.333008 80.1362 0.333008 73.4167V12.5834Z" fill="white"/>
<path d="M61.1663 12.5834C61.1663 5.86395 66.6135 0.416748 73.333 0.416748H85.4997C92.2191 0.416748 97.6663 5.86395 97.6663 12.5834V73.4167C97.6663 80.1362 92.2191 85.5834 85.4997 85.5834H73.333C66.6135 85.5834 61.1663 80.1362 61.1663 73.4167V12.5834Z" fill="white"/>
</svg>